Music_Regi_Ch1::
	tempo 120
	volume 7, 7
	duty_cycle 3
	vibrato 6, 3, 4
	toggle_perfect_pitch
	note_type 12, 11, 2
	octave 3
	note C#, 1
	octave 2
	note G#, 1
	octave 3
	note C#, 1
	note C_, 1
	octave 2
	note G_, 1
	octave 3
	note C_, 1
	octave 2
	note B_, 1
	note F#, 1
	note B_, 1
	note A#, 1
	note F_, 1
	note A#, 1
	note A_, 1
	note E_, 1
	note A_, 1
	note G#, 1
	note D#, 1
	note G#, 1
	note G_, 1
	note D_, 1
	note G_, 1
	note F#, 1
	note C#, 1
	note F#, 1
	note F_, 1
	note C_, 1
	note F_, 1
	note E_, 1
	octave 1
	note B_, 1
	octave 2
	note E_, 1
	note D#, 1
	octave 1
	note A#, 1
	octave 2
	note D#, 1
	note D_, 1
	octave 1
	note A_, 1
	octave 2
	note D_, 1
	rest 12
	rest 4 ; Bar 2
	octave 2
	note C#, 4
	note D_, 2 
	rest 6
	octave 1
	note G#, 4
	note A_, 2 
	rest 2
	rest 4 ; Bar 3
	note C#, 4
	note D_, 2 
	rest 14
	octave 2 ; Bar 4
	note F_, 2
	note C#, 1
	note D#, 2
	rest 1
	octave 1
	note A_, 2
	octave 2
	note C_, 2
	note D#, 2
	rest 12
	note C_, 2 ; Bar 5
	octave 1
	note A#, 1
	note G#, 2
	rest 1
	note E_, 2
	note A#, 2
	note E_, 2
	rest 12
	octave 2
	note F_, 2 ; Bar 6
	note C#, 1
	note D#, 2
	rest 1
	octave 1
	note A_, 2
	octave 2
	note C_, 2
	octave 1
	note A_, 2
	rest 12
.mainloop:
	octave 1 ; Bar 7
	note C#, 20
	note A_, 3
	note G#, 1
	note B_, 8 ; Bar 8
	note A_, 7
	note G#, 1
	note F#, 6
	note A_, 2
	note G#, 12 ; Bar 9
	note C#, 12
	note D_, 20 ; Bar 10
	note A#, 3
	note A_, 1
	octave 2
	note C_, 8 ; Bar 11
	octave 1
	note A#, 7
	note A_, 1
	note G_, 6
	note A#, 2
	note A_, 12 ; Bar 12
	octave 2
	note D_, 12
	octave 1 ; Bar 13
	note D#, 12
	note C_, 12
	note D_, 2 ; Bar 14
	rest 22
	note D#, 12 ; Bar 15
	note G_, 12
	note F#, 2 ; Bar 16
	rest 22
	sound_loop 0, .mainloop

Music_Regi_Ch2::
	duty_cycle 3
	vibrato 6, 3, 4
	note_type 12, 11, 2
	octave 3
	note C#, 2
	note C#, 1
	note C#, 1
	note A_, 1
	note G#, 1
	octave 1
	note C#, 1
	rest 1
	note C#, 1
	note C#, 1
	note A_, 1
	note G#, 1
	octave 2
	note C#, 2
	note C#, 1
	note C#, 1
	note A_, 1
	note G#, 1
	octave 3
	note C#, 1
	rest 1
	note C#, 1
	note C#, 1
	note A_, 1
	note G#, 1
	octave 2
	note C#, 1
	rest 1
	note C#, 1
	note C#, 1
	note A_, 1
	note G#, 1
	octave 3
	note C#, 1
	rest 1
	note C#, 1
	note C#, 1
	note A_, 1
	note G#, 1
	octave 2
	note C#, 2
	note C#, 2
	note A_, 1
	note G#, 1
	note C#, 2
	note C#, 2
	note A_, 1
	note G#, 1
	note C#, 2 ; Bar 2
	note C#, 2
	note A_, 1
	note G#, 1
	note C#, 2
	note C#, 2
	note A_, 1
	note G#, 1
	note C#, 2
	note C#, 2
	note A_, 1
	note G#, 1
	note C#, 2 ; Bar 3
	note C#, 2
	note A_, 1
	note G#, 1
	note C#, 2
	note C#, 2
	note A_, 1
	note G#, 1
	note C#, 2
	note C#, 2
	note A_, 1
	note G#, 1
	note D_, 2 ; Bar 4
	note D_, 2
	note A#, 1
	note A_, 1
	note D_, 2
	note D_, 2
	note A#, 1
	note A_, 1
	note D_, 2
	note D_, 2
	note A#, 1
	note A_, 1
	note D_, 2 ; Bar 5
	note D_, 2
	note A#, 1
	note A_, 1
	note D_, 2
	note D_, 2
	note A#, 1
	note A_, 1
	note D_, 2
	note D_, 2
	note A#, 1
	note A_, 1
	note D_, 2 ; Bar 6
	note D_, 2
	note A#, 1
	note A_, 1
	note D_, 2
	note D_, 2
	note A#, 1
	note A_, 1
	note D_, 2
	note D_, 2
	note A#, 1
	note A_, 1
.mainloop:
	note C#, 2 ; Bar 7
	note C#, 2
	note A_, 1
	note G#, 1
	note C#, 2
	note C#, 2
	note A_, 1
	note G#, 1
	note C#, 2
	note C#, 2
	note A_, 1
	note G#, 1
	note C#, 2 ; Bar 8
	note C#, 2
	note A_, 1
	note G#, 1
	note C#, 2
	note C#, 2
	note A_, 1
	note G#, 1
	note C#, 2
	note C#, 2
	note A_, 1
	note G#, 1
	note C#, 2 ; Bar 9
	note C#, 2
	note A_, 1
	note G#, 1
	note C#, 2
	note C#, 2
	note A_, 1
	note G#, 1
	note C#, 2
	note C#, 2
	note A_, 1
	note G#, 1
	note D_, 2 ; Bar 10
	note D_, 2
	note A#, 1
	note A_, 1
	note D_, 2
	note D_, 2
	note A#, 1
	note A_, 1
	note D_, 2
	note D_, 2
	note A#, 1
	note A_, 1
	note D_, 2 ; Bar 11
	note D_, 2
	note A#, 1
	note A_, 1
	note D_, 2
	note D_, 2
	note A#, 1
	note A_, 1
	note D_, 2
	note D_, 2
	note A#, 1
	note A_, 1
	note D_, 2 ; Bar 12
	note D_, 2
	note A#, 1
	note A_, 1
	note D_, 2
	note D_, 2
	note A#, 1
	note A_, 1
	note D_, 2
	note D_, 2
	note A#, 1
	note A_, 1
	note D_, 2 ; Bar 13
	note D_, 2
	note A#, 1
	note A_, 1
	note D_, 2
	note D_, 2
	note A#, 1
	note A_, 1
	note D_, 2
	note D_, 2
	note A#, 1
	note A_, 1
	note D_, 2 ; Bar 14
	note D_, 2
	note A#, 1
	note A_, 1
	note D_, 2
	note D_, 2
	note A#, 1
	note A_, 1
	note D_, 2
	note D_, 2
	note A#, 1
	note A_, 1
	note D_, 2 ; Bar 15
	note D_, 2
	note A#, 1
	note A_, 1
	note D_, 2
	note D_, 2
	note A#, 1
	note A_, 1
	note D_, 2
	note D_, 2
	note A#, 1
	note A_, 1
	note A_, 1 ; Bar 16
	octave 3
	note D_, 1
	octave 2
	note G#, 1
	octave 3
	note C#, 1
	octave 2
	note G_, 1
	octave 3
	note C_, 1
	octave 2
	note F#, 1
	note B_, 1
	note F_, 1
	note A#, 1
	note E_, 1
	note A_, 1
	note D#, 1
	note G#, 1
	note D_, 1
	note G_, 1
	note C#, 1
	note F#, 1
	note C_, 1
	note F_, 1
	octave 1
	note B_, 1
	octave 2
	note E_, 1
	octave 1
	note A#, 1
	octave 2
	note D#, 1
	sound_loop 0, .mainloop

Music_Regi_Ch3::
	note_type 12, 1, 1
	;sound_loop 0, .mainloop
